<svg xmlns="http://www.w3.org/2000/svg" width="375" height="812" viewBox="0 0 375 812" font-family="-apple-system, system-ui, sans-serif" fill="#fff" stroke="#000" stroke-width="1.5">
  <rect width="375" height="812" />
  <g><rect width="375" height="64" /><text x="16" y="40" font-size="20" font-weight="600" stroke="none" fill="#000">Feed</text><circle cx="343" cy="32" r="16" fill="#e6e6e6" /></g>
  <g transform="translate(16,88)"><text x="0" y="32" font-size="28" font-weight="700" stroke="none" fill="#000">Your feeds</text><text x="0" y="62" font-size="14" stroke="none" fill="#666">Each feed has its own sources and taste.</text></g>
  <g transform="translate(16,176)"><rect width="343" height="88" rx="6" fill="#f2f2f2" /><circle cx="40" cy="44" r="20" fill="#000" /><text x="40" y="49" font-size="14" text-anchor="middle" stroke="none" fill="#fff">F</text><text x="76" y="38" font-size="16" font-weight="600" stroke="none" fill="#000">For you</text><text x="76" y="62" font-size="12" stroke="none" fill="#666">Insights from transcripts and chats</text><text x="319" y="49" font-size="18" text-anchor="middle" stroke="none" fill="#000">✓</text></g>
  <g transform="translate(16,280)"><rect width="343" height="88" rx="6" /><circle cx="40" cy="44" r="20" fill="#e6e6e6" /><text x="40" y="49" font-size="14" text-anchor="middle" stroke="none" fill="#000">D</text><text x="76" y="38" font-size="16" font-weight="600" stroke="none" fill="#000">Discover</text><text x="76" y="62" font-size="12" stroke="none" fill="#666">Outside reading, curated for you</text><text x="319" y="49" font-size="20" text-anchor="middle" stroke="none" fill="#666">›</text></g>
  <g transform="translate(16,384)"><rect width="343" height="88" rx="6" /><circle cx="40" cy="44" r="20" fill="#e6e6e6" /><text x="40" y="49" font-size="14" text-anchor="middle" stroke="none" fill="#000">SR</text><text x="76" y="38" font-size="16" font-weight="600" stroke="none" fill="#000">Shape Rotator</text><text x="76" y="62" font-size="12" stroke="none" fill="#666">Shared with 6 people</text><text x="319" y="49" font-size="20" text-anchor="middle" stroke="none" fill="#666">›</text></g>
  <g transform="translate(16,488)"><rect width="343" height="88" rx="6" /><circle cx="40" cy="44" r="20" fill="#e6e6e6" /><text x="40" y="49" font-size="14" text-anchor="middle" stroke="none" fill="#000">W</text><text x="76" y="38" font-size="16" font-weight="600" stroke="none" fill="#000">Work</text><text x="76" y="62" font-size="12" stroke="none" fill="#666">Meetings, calendar, and decisions</text><text x="319" y="49" font-size="20" text-anchor="middle" stroke="none" fill="#666">›</text></g>
  <g transform="translate(16,616)"><rect width="343" height="48" rx="4" /><text x="171.5" y="30" font-size="14" font-weight="600" text-anchor="middle" stroke="none" fill="#000">+ Create a feed</text></g>
  <g transform="translate(0,744)"><rect width="375" height="68" /><text x="48" y="40" font-size="14" stroke="none" fill="#000">Feeds</text><text x="150" y="40" font-size="14" stroke="none" fill="#666">Saved</text><text x="246" y="40" font-size="14" stroke="none" fill="#666">Activity</text><text x="344" y="40" font-size="14" text-anchor="end" stroke="none" fill="#666">Menu</text></g>
  <g data-region="annotations"><circle cx="8" cy="80" r="8" fill="#fff" stroke="#d33" stroke-dasharray="4 2" /><text x="8" y="84" font-size="12" font-weight="700" text-anchor="middle" stroke="none" fill="#d33">1</text><circle cx="8" cy="168" r="8" fill="#fff" stroke="#d33" stroke-dasharray="4 2" /><text x="8" y="172" font-size="12" font-weight="700" text-anchor="middle" stroke="none" fill="#d33">2</text><circle cx="8" cy="608" r="8" fill="#fff" stroke="#d33" stroke-dasharray="4 2" /><text x="8" y="612" font-size="12" font-weight="700" text-anchor="middle" stroke="none" fill="#d33">3</text></g>
</svg>
