<svg xmlns="http://www.w3.org/2000/svg" width="375" height="812" viewBox="0 0 375 812" font-family="-apple-system, system-ui, sans-serif" fill="#fff" stroke="#000" stroke-width="1.5">
  <rect width="375" height="812" />
  <g><rect width="375" height="64" /><text x="16" y="40" font-size="14" stroke="none" fill="#000">← Feeds</text><text x="343" y="40" font-size="14" text-anchor="end" stroke="none" fill="#666">Tune</text></g>
  <g transform="translate(16,88)"><text x="0" y="32" font-size="28" font-weight="700" stroke="none" fill="#000">Discover</text><text x="0" y="62" font-size="14" stroke="none" fill="#666">Original reporting, selected for your interests.</text><g transform="translate(0,80)"><rect width="174" height="28" rx="14" fill="#f2f2f2" /><text x="87" y="19" font-size="11" text-anchor="middle" stroke="none" fill="#000">CURATED · NOT GENERATED</text></g></g>
  <g transform="translate(16,224)"><rect width="343" height="220" rx="6" /><rect x="16" y="16" width="311" height="72" fill="#e6e6e6" /><text x="16" y="112" font-size="12" stroke="none" fill="#666">POPULAR SCIENCE · 8 MIN READ</text><text x="16" y="144" font-size="19" font-weight="600" stroke="none" fill="#000">A new way to measure</text><text x="16" y="168" font-size="19" font-weight="600" stroke="none" fill="#000">collective attention</text><text x="16" y="194" font-size="12" stroke="none" fill="#666">Why here: matches your recent work on feeds.</text><text x="274" y="208" font-size="13" text-anchor="end" stroke="none" fill="#000">Save</text><text x="327" y="208" font-size="13" text-anchor="end" stroke="none" fill="#000">Share</text></g>
  <g transform="translate(16,464)"><rect width="343" height="200" rx="6" /><rect x="16" y="16" width="96" height="72" fill="#e6e6e6" /><text x="128" y="32" font-size="12" stroke="none" fill="#666">MIT TECHNOLOGY REVIEW</text><text x="128" y="60" font-size="17" font-weight="600" stroke="none" fill="#000">Private agents need</text><text x="128" y="82" font-size="17" font-weight="600" stroke="none" fill="#000">better boundaries</text><text x="16" y="120" font-size="12" stroke="none" fill="#666">Why here: you saved 3 related items.</text><text x="16" y="154" font-size="13" stroke="none" fill="#000">Less like this</text><text x="327" y="154" font-size="13" text-anchor="end" stroke="none" fill="#000">Open source ↗</text></g>
  <g transform="translate(16,688)"><text x="0" y="20" font-size="12" stroke="none" fill="#666">Your reactions improve future selections.</text></g>
  <g data-region="annotations"><circle cx="8" cy="80" r="8" fill="#fff" stroke="#d33" stroke-dasharray="4 2" /><text x="8" y="84" font-size="12" font-weight="700" text-anchor="middle" stroke="none" fill="#d33">1</text><circle cx="8" cy="216" r="8" fill="#fff" stroke="#d33" stroke-dasharray="4 2" /><text x="8" y="220" font-size="12" font-weight="700" text-anchor="middle" stroke="none" fill="#d33">2</text><circle cx="8" cy="680" r="8" fill="#fff" stroke="#d33" stroke-dasharray="4 2" /><text x="8" y="684" font-size="12" font-weight="700" text-anchor="middle" stroke="none" fill="#d33">3</text></g>
</svg>
