<svg xmlns="http://www.w3.org/2000/svg" width="375" height="812" viewBox="0 0 375 812" font-family="-apple-system, system-ui, sans-serif" fill="#fff" stroke="#000" stroke-width="1.5">
  <rect width="375" height="812" />
  <g><rect width="375" height="64" /><text x="16" y="40" font-size="14" stroke="none" fill="#000">← Feeds</text><text x="343" y="40" font-size="14" text-anchor="end" stroke="none" fill="#000">•••</text></g>
  <g transform="translate(16,88)"><text x="0" y="32" font-size="28" font-weight="700" stroke="none" fill="#000">Shape Rotator</text><text x="0" y="62" font-size="14" stroke="none" fill="#666">A shared feed for the team’s useful finds.</text><g transform="translate(0,82)"><circle cx="16" cy="16" r="16" fill="#d9d9d9" /><circle cx="40" cy="16" r="16" fill="#c8c8c8" /><circle cx="64" cy="16" r="16" fill="#b8b8b8" /><text x="92" y="21" font-size="12" stroke="none" fill="#666">6 people</text><rect x="239" width="104" height="32" rx="4" /><text x="291" y="21" font-size="12" text-anchor="middle" stroke="none" fill="#000">Invite</text></g></g>
  <g transform="translate(16,232)"><rect width="343" height="216" rx="6" /><text x="16" y="30" font-size="12" stroke="none" fill="#666">SHARED BY HUNTER · ARTICLE</text><text x="16" y="66" font-size="20" font-weight="600" stroke="none" fill="#000">The group should see this</text><text x="16" y="94" font-size="14" stroke="none" fill="#666">A short note about why it matters.</text><rect x="16" y="116" width="311" height="40" fill="#e6e6e6" /><text x="16" y="188" font-size="13" stroke="none" fill="#000">Helpful · 4</text><text x="104" y="188" font-size="13" stroke="none" fill="#000">Discuss · 2</text><text x="327" y="188" font-size="13" text-anchor="end" stroke="none" fill="#666">Source ↗</text></g>
  <g transform="translate(16,468)"><rect width="343" height="176" rx="6" /><text x="16" y="30" font-size="12" stroke="none" fill="#666">GROUP PULSE · THIS WEEK</text><text x="16" y="66" font-size="20" font-weight="600" stroke="none" fill="#000">What the team keeps</text><text x="16" y="90" font-size="20" font-weight="600" stroke="none" fill="#000">coming back to</text><text x="16" y="122" font-size="14" stroke="none" fill="#666">Built from shared items and reactions.</text><text x="16" y="154" font-size="13" stroke="none" fill="#000">Open summary</text></g>
  <g transform="translate(16,672)"><rect width="343" height="48" rx="4" fill="#000" /><text x="171.5" y="30" font-size="14" font-weight="600" text-anchor="middle" stroke="none" fill="#fff">Share from your Feed</text></g>
  <g transform="translate(0,744)"><rect width="375" height="68" /><text x="56" y="40" font-size="14" stroke="none" fill="#000">Feed</text><text x="166" y="40" font-size="14" stroke="none" fill="#666">People</text><text x="284" y="40" font-size="14" stroke="none" fill="#666">Settings</text></g>
  <g data-region="annotations"><circle cx="8" cy="80" r="8" fill="#fff" stroke="#d33" stroke-dasharray="4 2" /><text x="8" y="84" font-size="12" font-weight="700" text-anchor="middle" stroke="none" fill="#d33">1</text><circle cx="8" cy="224" r="8" fill="#fff" stroke="#d33" stroke-dasharray="4 2" /><text x="8" y="228" font-size="12" font-weight="700" text-anchor="middle" stroke="none" fill="#d33">2</text><circle cx="8" cy="664" r="8" fill="#fff" stroke="#d33" stroke-dasharray="4 2" /><text x="8" y="668" font-size="12" font-weight="700" text-anchor="middle" stroke="none" fill="#d33">3</text></g>
</svg>
