<svg xmlns="http://www.w3.org/2000/svg" width="375" height="812" viewBox="0 0 375 812" font-family="-apple-system, system-ui, sans-serif" fill="#fff" stroke="#000" stroke-width="1.5">
  <rect width="375" height="812" />
  <g><rect width="375" height="64" /><text x="16" y="40" font-size="14" stroke="none" fill="#000">Cancel</text></g>
  <g transform="translate(16,88)"><text x="0" y="32" font-size="28" font-weight="700" stroke="none" fill="#000">Share to a feed</text><text x="0" y="62" font-size="14" stroke="none" fill="#666">Choose who should receive this item.</text></g>
  <g transform="translate(16,176)"><rect width="343" height="152" rx="6" fill="#f2f2f2" /><text x="16" y="28" font-size="11" stroke="none" fill="#666">PREVIEW · INSIGHT</text><text x="16" y="62" font-size="18" font-weight="600" stroke="none" fill="#000">The decision that keeps</text><text x="16" y="86" font-size="18" font-weight="600" stroke="none" fill="#000">resurfacing</text><text x="16" y="118" font-size="12" stroke="none" fill="#666">The artifact and its readable provenance.</text></g>
  <g transform="translate(16,360)"><text x="0" y="20" font-size="14" font-weight="600" stroke="none" fill="#000">Destination</text><g transform="translate(0,40)"><rect width="343" height="64" rx="4" /><circle cx="24" cy="32" r="9" fill="#000" /><circle cx="24" cy="32" r="3" fill="#fff" /><text x="48" y="28" font-size="14" font-weight="600" stroke="none" fill="#000">Shape Rotator</text><text x="48" y="48" font-size="12" stroke="none" fill="#666">6 people</text></g><g transform="translate(0,120)"><rect width="343" height="64" rx="4" /><circle cx="24" cy="32" r="9" /><text x="48" y="28" font-size="14" font-weight="600" stroke="none" fill="#000">Feed research</text><text x="48" y="48" font-size="12" stroke="none" fill="#666">3 people</text></g></g>
  <g transform="translate(16,584)"><text x="0" y="20" font-size="14" font-weight="600" stroke="none" fill="#000">Add a note</text><rect y="36" width="343" height="72" rx="4" /><text x="12" y="64" font-size="13" stroke="none" fill="#999">Why should the group see this?</text></g>
  <g transform="translate(16,716)"><text x="0" y="-14" font-size="11" stroke="none" fill="#666">Copies this item—not your private source conversations.</text><rect width="343" height="48" rx="4" fill="#000" /><text x="171.5" y="30" font-size="14" font-weight="600" text-anchor="middle" stroke="none" fill="#fff">Share with Shape Rotator</text></g>
  <g data-region="annotations"><circle cx="8" cy="168" r="8" fill="#fff" stroke="#d33" stroke-dasharray="4 2" /><text x="8" y="172" font-size="12" font-weight="700" text-anchor="middle" stroke="none" fill="#d33">1</text><circle cx="8" cy="352" r="8" fill="#fff" stroke="#d33" stroke-dasharray="4 2" /><text x="8" y="356" font-size="12" font-weight="700" text-anchor="middle" stroke="none" fill="#d33">2</text><circle cx="8" cy="700" r="8" fill="#fff" stroke="#d33" stroke-dasharray="4 2" /><text x="8" y="704" font-size="12" font-weight="700" text-anchor="middle" stroke="none" fill="#d33">3</text></g>
</svg>
