<svg xmlns="http://www.w3.org/2000/svg" width="375" height="812" viewBox="0 0 375 812" font-family="-apple-system, system-ui, sans-serif" fill="#fff" stroke="#000" stroke-width="1.5">
  <rect width="375" height="812" />
  <g><rect width="375" height="64" /><text x="16" y="40" font-size="14" stroke="none" fill="#000">← Shape Rotator</text></g>
  <g transform="translate(16,88)"><text x="0" y="32" font-size="28" font-weight="700" stroke="none" fill="#000">People</text><text x="0" y="62" font-size="14" stroke="none" fill="#666">Who can view, react, and share here.</text></g>
  <g transform="translate(16,176)"><text x="0" y="20" font-size="14" font-weight="600" stroke="none" fill="#000">Invite someone</text><rect y="36" width="343" height="48" rx="4" /><text x="12" y="66" font-size="13" stroke="none" fill="#999">Name, email, or OpenKey identity</text><g transform="translate(0,100)"><rect width="224" height="48" rx="4" /><text x="12" y="29" font-size="13" stroke="none" fill="#000">Can view, react, and share</text><text x="205" y="29" font-size="14" text-anchor="end" stroke="none" fill="#666">⌄</text><rect x="240" width="103" height="48" rx="4" fill="#000" /><text x="291.5" y="30" font-size="14" font-weight="600" text-anchor="middle" stroke="none" fill="#fff">Invite</text></g><text x="0" y="176" font-size="11" stroke="none" fill="#666">Access applies only to this group Feed.</text></g>
  <g transform="translate(16,392)"><text x="0" y="20" font-size="14" font-weight="600" stroke="none" fill="#000">6 people</text><g transform="translate(0,40)"><rect width="343" height="72" rx="4" /><circle cx="32" cy="36" r="20" fill="#d9d9d9" /><text x="64" y="32" font-size="14" font-weight="600" stroke="none" fill="#000">Sam</text><text x="64" y="52" font-size="12" stroke="none" fill="#666">Owner</text><text x="327" y="40" font-size="14" text-anchor="end" stroke="none" fill="#666">•••</text></g><g transform="translate(0,128)"><rect width="343" height="72" rx="4" /><circle cx="32" cy="36" r="20" fill="#c8c8c8" /><text x="64" y="32" font-size="14" font-weight="600" stroke="none" fill="#000">Hunter</text><text x="64" y="52" font-size="12" stroke="none" fill="#666">Can view, react, and share</text><text x="327" y="40" font-size="14" text-anchor="end" stroke="none" fill="#666">•••</text></g><g transform="translate(0,216)"><rect width="343" height="72" rx="4" /><circle cx="32" cy="36" r="20" fill="#b8b8b8" /><text x="64" y="32" font-size="14" font-weight="600" stroke="none" fill="#000">Roman</text><text x="64" y="52" font-size="12" stroke="none" fill="#666">Can view and react</text><text x="327" y="40" font-size="14" text-anchor="end" stroke="none" fill="#666">•••</text></g></g>
  <g transform="translate(16,744)"><rect width="343" height="48" rx="4" /><text x="171.5" y="30" font-size="14" text-anchor="middle" stroke="none" fill="#000">Copy invite link</text></g>
  <g data-region="annotations"><circle cx="8" cy="168" r="8" fill="#fff" stroke="#d33" stroke-dasharray="4 2" /><text x="8" y="172" font-size="12" font-weight="700" text-anchor="middle" stroke="none" fill="#d33">1</text><circle cx="8" cy="384" r="8" fill="#fff" stroke="#d33" stroke-dasharray="4 2" /><text x="8" y="388" font-size="12" font-weight="700" text-anchor="middle" stroke="none" fill="#d33">2</text><circle cx="8" cy="736" r="8" fill="#fff" stroke="#d33" stroke-dasharray="4 2" /><text x="8" y="740" font-size="12" font-weight="700" text-anchor="middle" stroke="none" fill="#d33">3</text></g>
</svg>
