<svg xmlns="http://www.w3.org/2000/svg" width="375" height="812" viewBox="0 0 375 812" font-family="-apple-system, system-ui, sans-serif" fill="#fff" stroke="#000" stroke-width="1.5">
  <rect width="375" height="812" />
  <g><rect width="375" height="64" /><text x="16" y="40" font-size="14" stroke="none" fill="#000">← Group settings</text></g>
  <g transform="translate(16,88)"><text x="0" y="32" font-size="28" font-weight="700" stroke="none" fill="#000">What shapes this feed</text><text x="0" y="62" font-size="14" stroke="none" fill="#666">Shape Rotator learns from the group.</text></g>
  <g transform="translate(16,176)"><rect width="343" height="104" rx="6" fill="#f2f2f2" /><text x="16" y="28" font-size="12" stroke="none" fill="#666">GROUP INTERESTS</text><rect x="16" y="48" width="94" height="28" rx="14" /><text x="63" y="67" font-size="11" text-anchor="middle" stroke="none" fill="#000">agent design</text><rect x="118" y="48" width="82" height="28" rx="14" /><text x="159" y="67" font-size="11" text-anchor="middle" stroke="none" fill="#000">privacy</text><rect x="208" y="48" width="112" height="28" rx="14" /><text x="264" y="67" font-size="11" text-anchor="middle" stroke="none" fill="#000">product strategy</text></g>
  <g transform="translate(16,304)"><g><rect width="343" height="72" rx="4" /><text x="16" y="30" font-size="14" font-weight="600" stroke="none" fill="#000">Use group reactions</text><text x="16" y="52" font-size="12" stroke="none" fill="#666">Helpful and less-like-this tune ranking</text><rect x="280" y="26" width="40" height="20" rx="10" fill="#000" /><circle cx="310" cy="36" r="6" fill="#fff" /></g><g transform="translate(0,88)"><rect width="343" height="72" rx="4" /><text x="16" y="30" font-size="14" font-weight="600" stroke="none" fill="#000">Use shared items</text><text x="16" y="52" font-size="12" stroke="none" fill="#666">Repeated topics become group interests</text><rect x="280" y="26" width="40" height="20" rx="10" fill="#000" /><circle cx="310" cy="36" r="6" fill="#fff" /></g><g transform="translate(0,176)"><rect width="343" height="72" rx="4" /><text x="16" y="30" font-size="14" font-weight="600" stroke="none" fill="#000">Suggest matching items</text><text x="16" y="52" font-size="12" stroke="none" fill="#666">Never shares from a private Feed automatically</text><rect x="280" y="26" width="40" height="20" rx="10" fill="#000" /><circle cx="310" cy="36" r="6" fill="#fff" /></g></g>
  <g transform="translate(16,576)"><text x="0" y="20" font-size="14" font-weight="600" stroke="none" fill="#000">Future sharing rule</text><rect y="36" width="343" height="112" rx="6" /><text x="16" y="66" font-size="14" font-weight="600" stroke="none" fill="#000">Insights from Shape Rotator meetings</text><text x="16" y="90" font-size="12" stroke="none" fill="#666">Suggest to the group · review before sharing</text><text x="16" y="120" font-size="12" stroke="none" fill="#666">No private transcript text is copied.</text><text x="327" y="72" font-size="16" text-anchor="end" stroke="none" fill="#666">›</text></g>
  <g transform="translate(16,752)"><text x="0" y="20" font-size="11" stroke="none" fill="#666">Reset group learning</text></g>
  <g data-region="annotations"><circle cx="8" cy="168" r="8" fill="#fff" stroke="#d33" stroke-dasharray="4 2" /><text x="8" y="172" font-size="12" font-weight="700" text-anchor="middle" stroke="none" fill="#d33">1</text><circle cx="8" cy="296" r="8" fill="#fff" stroke="#d33" stroke-dasharray="4 2" /><text x="8" y="300" font-size="12" font-weight="700" text-anchor="middle" stroke="none" fill="#d33">2</text><circle cx="8" cy="568" r="8" fill="#fff" stroke="#d33" stroke-dasharray="4 2" /><text x="8" y="572" font-size="12" font-weight="700" text-anchor="middle" stroke="none" fill="#d33">3</text></g>
</svg>
