<svg xmlns="http://www.w3.org/2000/svg" width="375" height="812" viewBox="0 0 375 812" font-family="-apple-system, system-ui, sans-serif" fill="#fff" stroke="#000" stroke-width="1.5">
  <rect width="375" height="812" />
  <g><rect width="375" height="64" /><text x="16" y="40" font-size="14" stroke="none" fill="#000">← Feed</text><text x="343" y="40" font-size="12" text-anchor="end" stroke="none" fill="#666">FUTURE CONCEPT</text></g>
  <g transform="translate(16,88)"><text x="0" y="32" font-size="28" font-weight="700" stroke="none" fill="#000">Make something</text><text x="0" y="64" font-size="28" font-weight="700" stroke="none" fill="#000">you can hold</text><text x="0" y="94" font-size="14" stroke="none" fill="#666">Turn a period of life into a physical artifact.</text></g>
  <g transform="translate(16,224)"><text x="0" y="20" font-size="14" font-weight="600" stroke="none" fill="#000">Choose an output</text><g transform="translate(0,40)"><rect width="164" height="132" rx="6" fill="#f2f2f2" /><rect x="44" y="16" width="76" height="64" fill="#d7d7d7" /><text x="82" y="104" font-size="14" font-weight="600" text-anchor="middle" stroke="none" fill="#000">Photo book</text></g><g transform="translate(179,40)"><rect width="164" height="132" rx="6" /><rect x="44" y="16" width="76" height="64" fill="#e6e6e6" /><text x="82" y="104" font-size="14" font-weight="600" text-anchor="middle" stroke="none" fill="#000">Printed recap</text></g></g>
  <g transform="translate(16,424)"><text x="0" y="20" font-size="14" font-weight="600" stroke="none" fill="#000">Use</text><rect y="36" width="343" height="64" rx="4" /><text x="16" y="64" font-size="14" stroke="none" fill="#000">June 2026 · Feed items + selected photos</text><text x="327" y="66" font-size="16" text-anchor="end" stroke="none" fill="#666">›</text></g>
  <g transform="translate(16,552)"><text x="0" y="20" font-size="14" font-weight="600" stroke="none" fill="#000">Spending limit</text><rect y="36" width="343" height="64" rx="4" /><text x="16" y="64" font-size="14" stroke="none" fill="#000">Up to $40 · one time</text><text x="327" y="66" font-size="16" text-anchor="end" stroke="none" fill="#666">›</text></g>
  <g transform="translate(16,672)"><text x="0" y="16" font-size="11" stroke="none" fill="#666">Feed prepares a proof first. Nothing is purchased</text><text x="0" y="32" font-size="11" stroke="none" fill="#666">or shipped until you review the final order.</text><rect y="52" width="343" height="48" rx="4" fill="#000" /><text x="171.5" y="82" font-size="14" font-weight="600" text-anchor="middle" stroke="none" fill="#fff">Prepare a preview</text></g>
  <g data-region="annotations"><circle cx="8" cy="80" r="8" fill="#fff" stroke="#d33" stroke-dasharray="4 2" /><text x="8" y="84" font-size="12" font-weight="700" text-anchor="middle" stroke="none" fill="#d33">1</text><circle cx="8" cy="216" r="8" fill="#fff" stroke="#d33" stroke-dasharray="4 2" /><text x="8" y="220" font-size="12" font-weight="700" text-anchor="middle" stroke="none" fill="#d33">2</text><circle cx="8" cy="544" r="8" fill="#fff" stroke="#d33" stroke-dasharray="4 2" /><text x="8" y="548" font-size="12" font-weight="700" text-anchor="middle" stroke="none" fill="#d33">3</text><circle cx="8" cy="664" r="8" fill="#fff" stroke="#d33" stroke-dasharray="4 2" /><text x="8" y="668" font-size="12" font-weight="700" text-anchor="middle" stroke="none" fill="#d33">4</text></g>
</svg>
