<svg xmlns="http://www.w3.org/2000/svg" width="375" height="812" viewBox="0 0 375 812" font-family="-apple-system, system-ui, sans-serif" fill="#fff" stroke="#000" stroke-width="1.5">
  <rect width="375" height="812" />
  <g><rect width="375" height="64" /><text x="16" y="40" font-size="14" stroke="none" fill="#000">← Access &amp; automation</text></g>
  <g transform="translate(16,88)"><text x="0" y="32" font-size="28" font-weight="700" stroke="none" fill="#000">Your Feed routine</text><text x="0" y="62" font-size="14" stroke="none" fill="#666">What runs, how often, and what it may cost.</text></g>
  <g transform="translate(16,176)"><rect width="343" height="72" rx="6" fill="#f2f2f2" /><circle cx="28" cy="36" r="12" fill="#000" /><text x="28" y="40" font-size="12" text-anchor="middle" stroke="none" fill="#fff">✓</text><text x="52" y="30" font-size="14" font-weight="600" stroke="none" fill="#000">3 routines active</text><text x="52" y="52" font-size="12" stroke="none" fill="#666">Estimated total · about $48/month</text><text x="327" y="41" font-size="16" text-anchor="end" stroke="none" fill="#666">›</text></g>
  <g transform="translate(16,280)"><text x="0" y="20" font-size="14" font-weight="600" stroke="none" fill="#000">What runs</text>
    <g transform="translate(0,40)"><rect width="343" height="112" rx="6" /><text x="16" y="28" font-size="16" font-weight="600" stroke="none" fill="#000">Daily insights</text><text x="16" y="52" font-size="12" stroke="none" fill="#666">Every morning · Listen transcripts</text><text x="16" y="76" font-size="12" stroke="none" fill="#666">Usually $0.20–$0.35/day</text><text x="16" y="100" font-size="13" stroke="none" fill="#000">Edit</text><rect x="280" y="18" width="40" height="20" rx="10" fill="#000" /><circle cx="310" cy="28" r="6" fill="#fff" /></g>
    <g transform="translate(0,168)"><rect width="343" height="112" rx="6" /><text x="16" y="28" font-size="16" font-weight="600" stroke="none" fill="#000">Reading curator</text><text x="16" y="52" font-size="12" stroke="none" fill="#666">5 articles/day · Web + Feed preferences</text><text x="16" y="76" font-size="12" stroke="none" fill="#666">Usually $1.00–$1.40/day</text><text x="16" y="100" font-size="13" stroke="none" fill="#000">Edit</text><rect x="280" y="18" width="40" height="20" rx="10" fill="#000" /><circle cx="310" cy="28" r="6" fill="#fff" /></g>
    <g transform="translate(0,296)"><rect width="343" height="128" rx="6" /><text x="16" y="28" font-size="16" font-weight="600" stroke="none" fill="#000">Episode illustrator</text><text x="16" y="52" font-size="12" stroke="none" fill="#666">When a new episode is ready</text><text x="16" y="76" font-size="12" stroke="none" fill="#666">Private workflow from Sam · up to $12/run</text><text x="16" y="104" font-size="13" stroke="none" fill="#000">Review access and price</text><rect x="280" y="18" width="40" height="20" rx="10" /><circle cx="310" cy="28" r="6" fill="#fff" /></g>
  </g>
  <g transform="translate(16,736)"><rect width="343" height="48" rx="4" /><text x="171.5" y="30" font-size="14" font-weight="600" text-anchor="middle" stroke="none" fill="#000">+ Add a routine</text></g>
  <g data-region="annotations"><circle cx="8" cy="80" r="8" fill="#fff" stroke="#d33" stroke-dasharray="4 2" /><text x="8" y="84" font-size="12" font-weight="700" text-anchor="middle" stroke="none" fill="#d33">1</text><circle cx="8" cy="168" r="8" fill="#fff" stroke="#d33" stroke-dasharray="4 2" /><text x="8" y="172" font-size="12" font-weight="700" text-anchor="middle" stroke="none" fill="#d33">2</text><circle cx="8" cy="272" r="8" fill="#fff" stroke="#d33" stroke-dasharray="4 2" /><text x="8" y="276" font-size="12" font-weight="700" text-anchor="middle" stroke="none" fill="#d33">3</text><circle cx="8" cy="728" r="8" fill="#fff" stroke="#d33" stroke-dasharray="4 2" /><text x="8" y="732" font-size="12" font-weight="700" text-anchor="middle" stroke="none" fill="#d33">4</text></g>
</svg>
